<?xml version="1.0" encoding="utf-8"?>
<!-- Generator: Adobe Adobe Illustrator 24.2.0, SVG Export Plug-In . SVG Version: 6.00 Build 0)  -->
<svg version="1.1" xmlns="http://www.w3.org/2000/svg" xmlns:xlink="http://www.w3.org/1999/xlink" x="0px" y="0px"
	 viewBox="0 0 1735.04 570" style="enable-background:new 0 0 1735.04 570;" xml:space="preserve">
<style type="text/css">
	.st0{fill:none;}
	.st1{fill:#FFFFFF;}
	.st2{font-family:'YesevaOne-Regular';}
	.st3{font-size:300px;}
	.st4{letter-spacing:-1;}
	.st5{letter-spacing:-11;}
	.st6{letter-spacing:60;}
	.st7{display:none;}
	.st8{display:inline;}
	.st9{fill:#57A2AE;}
</style>
<g id="Layer_1">
	<rect x="85.04" y="48.72" class="st0" width="1650" height="1200"/>
	<text transform="matrix(1 0 0 1 85.0447 258.7164)"><tspan x="0" y="0" class="st1 st2 st3 st4">KI</tspan><tspan x="319.49" y="0" class="st1 st2 st3 st5">NG BLUE</tspan><tspan x="1547.08" y="0" class="st1 st2 st3"> </tspan><tspan x="0" y="245" class="st1 st2 st3 st6">LAGOON</tspan></text>
</g>
<g id="Layer_2" class="st7">
	<g class="st8">
		<path class="st9" d="M553.98,975.55l13.27,14.15c3.53,3.76,3.26,9.7-0.6,13.12l-173.33,153.62c-7.35,6.51-18.4,6.53-25.77,0.04
			l-175.13-154.34c-3.9-3.44-4.16-9.43-0.57-13.19l12.47-13.08c3.4-3.57,9.02-3.8,12.71-0.53l153.41,136.24
			c5.8,5.15,14.54,5.1,20.29-0.11l150.42-136.44C544.85,971.68,550.56,971.91,553.98,975.55z"/>
	</g>
	<g class="st8">
		<path class="st1" d="M553.98,1465.55l13.27,14.15c3.53,3.76,3.26,9.7-0.6,13.12l-173.33,153.62c-7.35,6.51-18.4,6.53-25.77,0.04
			l-175.13-154.34c-3.9-3.44-4.16-9.43-0.57-13.19l12.47-13.08c3.4-3.57,9.02-3.8,12.71-0.53l153.41,136.24
			c5.8,5.15,14.54,5.1,20.29-0.11l150.42-136.44C544.85,1461.68,550.56,1461.91,553.98,1465.55z"/>
	</g>
	<g class="st8">
		<path class="st9" d="M776.08,892.54l14.15-13.27c3.76-3.53,9.7-3.26,13.12,0.6l153.62,173.33c6.51,7.35,6.53,18.4,0.04,25.77
			l-154.34,175.13c-3.44,3.9-9.43,4.16-13.19,0.57l-13.08-12.47c-3.57-3.4-3.8-9.02-0.53-12.71l136.24-153.41
			c5.15-5.8,5.1-14.54-0.11-20.29L775.56,905.37C772.2,901.67,772.43,895.96,776.08,892.54z"/>
	</g>
	<g class="st8">
		<path class="st1" d="M776.08,1382.54l14.15-13.27c3.76-3.53,9.7-3.26,13.12,0.6l153.62,173.33c6.51,7.35,6.53,18.4,0.04,25.77
			l-154.34,175.13c-3.44,3.9-9.43,4.16-13.19,0.57l-13.08-12.47c-3.57-3.4-3.8-9.02-0.53-12.71l136.24-153.41
			c5.15-5.8,5.1-14.54-0.11-20.29l-136.44-150.42C772.2,1391.67,772.43,1385.96,776.08,1382.54z"/>
	</g>
	<g class="st8">
		<path class="st9" d="M1418.97,1241.46l-14.15,13.27c-3.76,3.53-9.7,3.26-13.12-0.6l-153.62-173.33
			c-6.51-7.35-6.53-18.4-0.04-25.77l154.34-175.13c3.44-3.9,9.43-4.16,13.19-0.57l13.08,12.47c3.57,3.4,3.8,9.02,0.53,12.71
			l-136.24,153.41c-5.15,5.8-5.1,14.54,0.11,20.29l136.44,150.42C1422.84,1232.33,1422.61,1238.04,1418.97,1241.46z"/>
	</g>
	<g class="st8">
		<path class="st1" d="M1418.97,1731.46l-14.15,13.27c-3.76,3.53-9.7,3.26-13.12-0.6l-153.62-173.33
			c-6.51-7.35-6.53-18.4-0.04-25.77l154.34-175.13c3.44-3.9,9.43-4.16,13.19-0.57l13.08,12.47c3.57,3.4,3.8,9.02,0.53,12.71
			l-136.24,153.41c-5.15,5.8-5.1,14.54,0.11,20.29l136.44,150.42C1422.84,1722.33,1422.61,1728.04,1418.97,1731.46z"/>
	</g>
</g>
</svg>
