<?xml version="1.0" encoding="utf-8"?>
<!-- Generator: Adobe Adobe Illustrator 24.2.0, SVG Export Plug-In . SVG Version: 6.00 Build 0)  -->
<svg version="1.1" xmlns="http://www.w3.org/2000/svg" xmlns:xlink="http://www.w3.org/1999/xlink" x="0px" y="0px"
	 viewBox="0 0 360 440" style="enable-background:new 0 0 360 440;" xml:space="preserve">
<style type="text/css">
	.st0{display:none;}
	.st1{fill:#57A2AE;}
	.st2{fill:#FFFFFF;}
</style>
<g id="Layer_1" class="st0">
	<rect x="-1790.76" y="-437" style="display:inline;fill:none;" width="1650" height="1200"/>
	<text transform="matrix(1 0 0 1 -1790.7562 -227.0011)" style="display:inline;"><tspan x="0" y="0" class="st1" style="font-family:'YesevaOne-Regular'; font-size:300px; letter-spacing:-1;">KI</tspan><tspan x="319.49" y="0" class="st1" style="font-family:'YesevaOne-Regular'; font-size:300px; letter-spacing:-11;">NG BLUE</tspan><tspan x="1547.08" y="0" class="st1" style="font-family:'YesevaOne-Regular'; font-size:300px;"> </tspan><tspan x="0" y="245" class="st1" style="font-family:'YesevaOne-Regular'; font-size:300px; letter-spacing:60;">LAGOON</tspan></text>
</g>
<g id="Layer_2">
	<g>
		<path class="st1" d="M-593.54-361.45l13.27,14.15c3.53,3.76,3.26,9.7-0.6,13.12l-173.33,153.62c-7.35,6.51-18.4,6.53-25.77,0.04
			l-175.13-154.34c-3.9-3.44-4.16-9.43-0.57-13.19l12.47-13.08c3.4-3.57,9.02-3.8,12.71-0.53l153.41,136.24
			c5.8,5.15,14.54,5.1,20.29-0.11l150.42-136.44C-602.67-365.32-596.96-365.09-593.54-361.45z"/>
	</g>
	<g>
		<path class="st2" d="M-593.54,128.55l13.27,14.15c3.53,3.76,3.26,9.7-0.6,13.12l-173.33,153.62c-7.35,6.51-18.4,6.53-25.77,0.04
			l-175.13-154.34c-3.9-3.44-4.16-9.43-0.57-13.19l12.47-13.08c3.4-3.57,9.02-3.8,12.71-0.53l153.41,136.24
			c5.8,5.15,14.54,5.1,20.29-0.11l150.42-136.44C-602.67,124.68-596.96,124.91-593.54,128.55z"/>
	</g>
	<g>
		<path class="st1" d="M-371.45-444.46l14.15-13.27c3.76-3.53,9.7-3.26,13.12,0.6l153.62,173.33c6.51,7.35,6.53,18.4,0.04,25.77
			L-344.86-82.89c-3.44,3.9-9.43,4.16-13.19,0.57l-13.08-12.47c-3.57-3.4-3.8-9.02-0.53-12.71l136.24-153.41
			c5.15-5.8,5.1-14.54-0.11-20.29l-136.44-150.42C-375.32-435.33-375.09-441.04-371.45-444.46z"/>
	</g>
	<g>
		<path class="st2" d="M-371.45,45.54l14.15-13.27c3.76-3.53,9.7-3.26,13.12,0.6l153.62,173.33c6.51,7.35,6.53,18.4,0.04,25.77
			l-154.34,175.13c-3.44,3.9-9.43,4.16-13.19,0.57l-13.08-12.47c-3.57-3.4-3.8-9.02-0.53-12.71l136.24-153.41
			c5.15-5.8,5.1-14.54-0.11-20.29L-371.96,58.37C-375.32,54.67-375.09,48.96-371.45,45.54z"/>
	</g>
	<g>
		<path class="st1" d="M271.45-95.54L257.3-82.27c-3.76,3.53-9.7,3.26-13.12-0.6L90.56-256.21c-6.51-7.35-6.53-18.4-0.04-25.77
			l154.34-175.13c3.44-3.9,9.43-4.16,13.19-0.57l13.08,12.47c3.57,3.4,3.8,9.02,0.53,12.71L135.41-279.08
			c-5.15,5.8-5.1,14.54,0.11,20.29l136.44,150.42C275.32-104.67,275.09-98.96,271.45-95.54z"/>
	</g>
	<g>
		<path class="st2" d="M271.45,394.46l-14.15,13.27c-3.76,3.53-9.7,3.26-13.12-0.6L90.56,233.79c-6.51-7.35-6.53-18.4-0.04-25.77
			L244.86,32.89c3.44-3.9,9.43-4.16,13.19-0.57l13.08,12.47c3.57,3.4,3.8,9.02,0.53,12.71L135.41,210.92
			c-5.15,5.8-5.1,14.54,0.11,20.29l136.44,150.42C275.32,385.33,275.09,391.04,271.45,394.46z"/>
	</g>
</g>
</svg>
