<?xml version="1.0" encoding="utf-8"?>
<!-- Generator: Adobe Adobe Illustrator 24.2.0, SVG Export Plug-In . SVG Version: 6.00 Build 0)  -->
<svg version="1.1" id="Layer_1" xmlns="http://www.w3.org/2000/svg" xmlns:xlink="http://www.w3.org/1999/xlink" x="0px" y="0px"
	 viewBox="0 0 2870 780" style="enable-background:new 0 0 2870 780;" xml:space="preserve">
<style type="text/css">
	.st0{fill:#FFFFFF;stroke:#FFFFFF;stroke-width:8;stroke-miterlimit:10;}
</style>
<g>
	<path class="st0" d="M508.07,184.01l-6.26,6.26c-33.37,32.89-57.86,56.91-73.48,72.04c-26.82,25.74-43.8,42.31-50.95,49.7
		l-4.29,4.47l70.61,68.65c12.27,11.92,20.85,17.88,25.74,17.88c4.53,0,11.86-5.01,21.99-15.02l1.43-1.43l4.83,4.29
		c-8.94,10.01-22.29,23.12-40.04,39.33l-3.4-3.22c-17.88-16.68-38.85-37.12-62.93-61.32c-13.47-13.47-23.84-23.66-31.11-30.57
		l-3.22-3.22l-22.35,21.99c-27.65,27.53-51.49,46.69-71.51,57.48c-20.02,10.79-41.65,16.18-64.89,16.18
		c-25.15,0-47.73-7.21-67.75-21.63c-14.54-10.37-25.86-24.1-33.97-41.21c-8.11-17.1-12.16-35.84-12.16-56.22
		c0-29.91,10.7-54.53,32.09-73.83c21.39-19.31,48.65-28.96,81.79-28.96c21.57,0,42.28,5.04,62.12,15.11
		c19.84,10.07,41.5,26.61,64.98,49.61l1.79-5.54c8.22-25.15,12.57-43.2,13.05-54.17c0.24-4.41-1.73-6.61-5.9-6.61
		c-3.22,0-8.58,1.55-16.09,4.65l-3.22,1.25l-2.68-5.9l1.97-0.89c10.01-4.29,18.77-8.46,26.28-12.51l26.28-14.12
		c0.24-0.12,1.37-0.65,3.4-1.61l-2.68,10.37c-12.16,46.84-22.29,78.78-30.39,95.82l31.29,30.57l4.65-4.47l28.07-28.07l25.56-24.85
		c16.8-16.56,30.93-31.29,42.37-44.16l4.11-4.47c-6.68-0.36-14.12-0.54-22.35-0.54c-17.16,0-27.5,1.01-31.02,3.04
		c-3.52,2.03-7.36,9.36-11.53,21.99l-1.07,2.86h-7.69l1.25-3.4c5.48-15.49,10.25-30.69,14.3-45.59l10.37,0.18l47.55,0.36
		L508.07,184.01z M352.36,327.21l-26.64-26.1c-10.37,19.67-23.12,35.46-38.26,47.38c-15.14,11.92-29.85,17.88-44.16,17.88
		c-8.7,0-15.94-1.97-21.72-5.9c-5.78-3.93-8.67-8.88-8.67-14.84c0-3.69,1.43-8.34,4.29-13.94c2.62,16.21,13.29,24.31,32,24.31
		c27.77,0,50.47-21.15,68.11-63.46c-29.92-29.08-54.29-49.01-73.12-59.8c-18.83-10.79-38.61-16.18-59.35-16.18
		c-28.01,0-51.37,9.72-70.08,29.14c-14.54,15.14-21.81,34.74-21.81,58.82c0,27.29,9.89,50.48,29.68,69.54
		c25.15,24.31,55,36.47,89.56,36.47c22.05,0,41.89-4.85,59.53-14.57c17.64-9.71,40.16-28.27,67.58-55.69L352.36,327.21z"/>
	<path class="st0" d="M574.21,276.26v1.97c0,11.2-7.39,33.37-22.17,66.5l-13.23,30.03c-7.03,16.09-10.67,25.92-10.91,29.5
		c-0.12,3.7,1.9,5.42,6.08,5.18c2.38-0.12,6.32-1.37,11.8-3.75l2.32,5.18c-18.71,8.94-33.67,15.32-44.87,19.13
		c0.59-11.2,2.41-21.54,5.45-31.02c3.04-9.48,9.62-25.18,19.75-47.11c12.87-28.13,19.42-44.57,19.67-49.34
		c0.24-3.69-1.31-5.54-4.65-5.54c-1.55,0-3.58,0.42-6.08,1.25l-7.51,2.68c-0.48,0.12-1.61,0.54-3.4,1.25l-1.79-5.72l3.75-1.25
		c13.23-4.89,26.7-10.37,40.4-16.45L574.21,276.26z M584.58,230.49c5.48,0,8.22,2.74,8.22,8.22c0,3.1-1.22,5.9-3.66,8.4
		c-2.44,2.5-5.22,3.75-8.31,3.75c-5.6,0-8.4-2.74-8.4-8.22c0-3.1,1.22-5.9,3.67-8.4C578.53,231.74,581.36,230.49,584.58,230.49z"/>
	<path class="st0" d="M687.2,403.18l2.86,4.83c-14.3,10.25-31.23,17.4-50.77,21.45c2.5-19.67,14.06-49.52,34.68-89.56l11.62-22.17
		c3.93-7.63,5.9-12.51,5.9-14.66c0-3.22-1.31-4.83-3.93-4.83c-3.7,0-10.7,4.17-21.01,12.51c-10.31,8.34-20.35,18-30.12,28.96
		c-20.26,22.65-37.25,49.82-50.95,81.52c-5.6,1.31-13.53,4.17-23.78,8.58c10.96-22.4,22.02-47.58,33.16-75.53
		c11.14-27.95,16.72-44.48,16.72-49.61c0-4.29-1.73-6.44-5.18-6.44c-1.79,0-5.66,0.89-11.62,2.68c-0.48,0.12-1.13,0.3-1.97,0.54
		l-1.07-5.72c16.68-4.77,31.76-10.13,45.23-16.09l2.32-1.07c0.24,1.55,0.36,2.62,0.36,3.22c0,10.61-7.81,33.19-23.42,67.75
		l-2.5,5.36l3.04-3.4c19.54-22.29,37.57-39.84,54.08-52.65c16.51-12.81,29.41-19.22,38.7-19.22c5.84,0,8.76,2.98,8.76,8.94
		c0,6.2-7.81,24.49-23.42,54.88c-18.71,36.23-28.07,56.61-28.07,61.14c0,3.46,1.61,5.18,4.83,5.18c3.58,0,8.46-1.97,14.66-5.9
		L687.2,403.18z"/>
	<path class="st0" d="M821.81,364.75c-15.14,50.18-30.75,86.82-46.84,109.94c-10.85,15.61-24.88,28.84-42.1,39.69
		c-17.22,10.84-32.86,16.27-46.93,16.27c-6.32,0-11.5-1.52-15.55-4.56c-4.05-3.04-6.08-6.94-6.08-11.71c0-2.86,0.66-5.84,1.97-8.94
		c10.25,8.58,21.87,12.87,34.86,12.87c39.92,0,72.28-48.63,97.07-145.88c-15.73,17.52-30.84,31.55-45.32,42.1
		c-14.48,10.55-25.89,15.82-34.23,15.82c-10.01,0-15.02-6.37-15.02-19.13c0-14.78,6.37-31.46,19.13-50.06
		c12.75-18.59,29.08-34.98,48.98-49.16c29.08-20.74,60.13-31.11,93.14-31.11c7.51,0,11.26,2.21,11.26,6.61
		c0,1.91-1.01,5.3-3.04,10.19l-0.71,1.97c-6.44-1.07-13.71-1.61-21.81-1.61c-23.12,0-42.61,3.28-58.46,9.83
		c-15.85,6.56-29.92,17.16-42.19,31.82c-7.63,9.18-13.94,19.22-18.95,30.12c-5.01,10.9-7.51,20.17-7.51,27.8
		c0,11.56,3.69,17.34,11.08,17.34c5.96,0,13.85-4.29,23.69-12.87s19.22-19.31,28.16-32.18c13.94-20.26,22.53-39.57,25.74-57.92
		c4.89,4.53,7.33,9.89,7.33,16.09c0,10.25-5.9,23.48-17.7,39.69l2.15-0.36l7.51-1.07l7.87-1.25L821.81,364.75z"/>
	<path class="st0" d="M1290.02,263.56c-2.39,3.34-6.08,8.04-11.08,14.12c-2.39,2.98-6.02,7.57-10.91,13.77
		c-8.46,10.73-15.08,18.83-19.84,24.31c5.6-0.6,12.27-1.85,20.02-3.75l28.6-7.15c9.77-2.38,19.37-3.58,28.78-3.58
		c16.33,0,29.82,4.8,40.49,14.39c10.66,9.59,16,21.72,16,36.38c0,20.98-8.91,39.39-26.73,55.24
		c-17.82,15.85-38.53,23.78-62.12,23.78c-17.28,0-32.66-4.2-46.12-12.6c-13.47-8.4-30.75-24.58-51.84-48.54l-3.75,3.4
		c-44.1,38.73-84.56,58.1-121.39,58.1c-30.27,0-55.27-9.5-75-28.51c-19.73-19.01-29.59-43.05-29.59-72.13
		c0-31.94,12.21-57.09,36.65-75.44c19.19-14.54,40.46-21.81,63.82-21.81c19.42,0,37.84,6.85,55.24,20.56
		c10.96,8.7,30.33,29.85,58.1,63.46c9.06,10.97,16.92,20.26,23.6,27.89l4.11,4.47c6.55-5.84,11.56-10.84,15.02-15.02
		c-17.28-11.2-25.92-26.99-25.92-47.37c0-12.39,6.32-18.59,18.95-18.59c-7.75,8.82-11.62,16.87-11.62,24.13
		c0,6.91,2.8,12.6,8.4,17.07c5.6,4.47,12.75,6.7,21.45,6.7c0.95,0,2.74-0.12,5.36-0.36l1.07-1.25c5.96-6.67,15.49-18.23,28.6-34.68
		c13.11-16.45,21.63-27.53,25.56-33.25l6.08-8.94l3.22-4.47c0.47-0.6,1.25-1.73,2.32-3.4l6.26,1.97c-2.27,3.93-3.4,8.64-3.4,14.12
		c0,8.11,3.54,15.94,10.64,23.51c7.09,7.57,14.45,11.35,22.08,11.35c7.87,0,14.6-3.54,20.2-10.64c5.6-7.09,8.4-15.64,8.4-25.65
		c0-14.54-5.12-25.71-15.37-33.52c-10.25-7.8-24.97-11.71-44.16-11.71c-20.74,0-62.75,3.99-126.03,11.98
		c-28.6,3.7-49.82,5.54-63.64,5.54c-12.4,0-21.39-1.97-26.99-5.9l1.07-3.58c4.05-13.47,7.51-26.34,10.37-38.61l6.61,1.43
		c-1.19,5.13-1.79,9.3-1.79,12.51c0,8.11,8.22,12.16,24.67,12.16c10.13,0,29.86-1.97,59.17-5.9c57.92-7.63,97.37-11.44,118.35-11.44
		c22.41,0,39.84,4.71,52.29,14.12c12.45,9.42,18.68,22.59,18.68,39.51c0,27.65-12.93,47.49-38.79,59.53
		c-9.77,4.53-16.45,6.79-20.02,6.79C1316.77,298.07,1305.39,286.57,1290.02,263.56z M1190.8,365.11l-1.61-1.79
		c-7.03-7.98-16.09-18.77-27.17-32.36c-27.06-33.49-48.39-56.16-64-68.02c-15.61-11.86-31.88-17.79-48.8-17.79
		c-20.26,0-37.3,7.54-51.13,22.61c-13.83,15.08-20.74,33.76-20.74,56.04c0,25.63,10.52,47.82,31.55,66.59
		c21.03,18.77,45.91,28.16,74.64,28.16C1116.67,418.56,1152.42,400.74,1190.8,365.11z M1211.53,355.27
		c9.41,10.61,21.27,22.47,35.58,35.58c20.74,19.19,40.58,28.78,59.53,28.78c17.28,0,32.3-5.9,45.05-17.7
		c12.75-11.8,19.13-25.68,19.13-41.65c0-11.56-3.82-20.92-11.44-28.07c-7.63-7.15-17.52-10.73-29.68-10.73
		c-9.42,0-27.29,3.28-53.63,9.83c-16.09,4.05-28.6,6.08-37.54,6.08c-2.98,0-5.96-0.3-8.94-0.89c-0.96,0.96-1.55,1.61-1.79,1.97
		l-6.79,7.15l-7.69,7.69C1213.08,353.55,1212.49,354.2,1211.53,355.27z"/>
	<path class="st0" d="M1497.03,183.3c0,14.54-9.65,43.68-28.96,87.42c-33.49,76.16-50.53,120.38-51.13,132.65
		c-0.24,5.36,1.91,7.93,6.44,7.69c3.46-0.12,9.59-3.63,18.41-10.55l2.15-1.61l3.4,4.65c-19.19,16.8-33.25,25.21-42.19,25.21
		c-7.15,0-10.73-5.01-10.73-15.02c0-7.75,2.47-18.59,7.42-32.54c4.94-13.94,16.77-43.32,35.49-88.13l16.98-40.76
		c10.25-24.43,15.38-38.67,15.38-42.73c0-3.22-1.85-4.83-5.54-4.83c-1.31,0-4.47,0.78-9.47,2.32c-0.6,0.24-1.49,0.54-2.68,0.89
		l-1.79-5.18l2.68-1.07C1473.49,193.84,1488.21,187.71,1497.03,183.3z"/>
	<path class="st0" d="M1599.29,281.62c-8.34,15.97-18.47,38.44-30.39,67.4c-11.92,28.96-18,45.83-18.24,50.59
		c-0.12,3.7,1.91,5.54,6.08,5.54c3.22,0,7.92-1.19,14.12-3.58l2.32,4.83c-8.7,4.53-23.06,10.61-43.08,18.23l-4.83,1.79
		c3.1-19.42,9.06-40.16,17.88-62.21c-15.38,19.43-29.94,34.65-43.71,45.68c-13.77,11.02-25.12,16.54-34.06,16.54
		c-7.87,0-11.8-4.11-11.8-12.33c0-9.89,7.33-30.21,21.99-60.96l14.3-30.03c4.41-9.3,6.73-15.97,6.97-20.02
		c0.24-3.93-1.79-5.9-6.08-5.9c-1.91,0-5.25,0.71-10.01,2.15l-1.43-5.36l2.86-0.89c16.68-4.89,30.57-9.71,41.65-14.48
		c0,9.54-5.3,25.21-15.91,47.02l-15.55,31.82c-11.92,24.43-17.88,39.39-17.88,44.87c0,5.13,2.26,7.69,6.79,7.69
		c11.56,0,26.87-12.07,45.94-36.2c19.07-24.13,34.26-50.74,45.59-79.82l2.32-5.72C1582.07,287.52,1590.11,285.32,1599.29,281.62z"/>
	<path class="st0" d="M1685.1,349.91c1.67,3.34,2.5,6.32,2.5,8.94c0,11.44-7.93,24.61-23.78,39.51
		c-23.12,21.81-42.79,32.72-59,32.72c-13.94,0-20.92-7.92-20.92-23.78c0-17.88,5.45-36.65,16.36-56.31
		c10.91-19.66,24.88-35.87,41.92-48.63c20.74-15.49,39.21-23.24,55.42-23.24c9.41,0,14.12,3.46,14.12,10.37
		c0,4.53-2.27,9.98-6.79,16.36c-4.53,6.38-10.19,12.13-16.98,17.25c-6.32,4.65-14.33,8.94-24.04,12.87
		c-9.72,3.93-17.19,5.9-22.44,5.9c-5.6,0-9.47-3.1-11.62-9.3c5.01,0.72,9,1.07,11.98,1.07c11.92,0,22.91-3.42,32.98-10.28
		c10.07-6.85,15.11-14.27,15.11-22.26c0-5.72-3.7-8.58-11.08-8.58c-13.23,0-26.76,8.11-40.58,24.31
		c-9.77,11.44-17.82,24.79-24.13,40.04c-6.32,15.26-9.48,28.84-9.48,40.76c0,12.28,5.12,18.41,15.38,18.41
		c11.2,0,22.85-6.17,34.95-18.5C1667.07,385.22,1677.12,369.34,1685.1,349.91z"/>
	<path class="st0" d="M1893.37,302.18l-3.93,5.01c-13.23,16.92-24.97,30.75-35.22,41.48c10.37-5.96,22.52-8.94,36.47-8.94
		c15.49,0,33.79,3.99,54.88,11.98l48.98,19.84l50.77,20.74c21.21,8.58,34.2,12.87,38.97,12.87c5.36,0,12.21-3.87,20.56-11.62
		l4.65,4.83c-10.61,9.54-20.98,20.32-31.11,32.36c-18.12-6.32-46.12-17.58-84.02-33.79c-69.48-29.68-111.26-44.51-125.32-44.51
		c-7.03,0-12.93,1.49-17.7,4.47c-4.77,2.98-12.58,10.07-23.42,21.27l-3.22,3.22l-3.58-5.72c14.3-14.66,30.51-33.07,48.63-55.24
		l12.69-15.37c0.24-0.36,1.25-1.61,3.04-3.75c-3.46-0.36-6.44-0.54-8.94-0.54c-19.19,0-34.44,5.57-45.77,16.72
		c-11.32,11.15-16.98,26.13-16.98,44.96c0,16.57,6.58,30.54,19.75,41.92c13.17,11.38,29.23,17.07,48.18,17.07
		c13.23,0,28.48-5.06,45.77-15.2l3.75,5.36c-20.74,13.94-41.18,20.92-61.32,20.92c-19.31,0-34.74-5.87-46.3-17.61
		c-11.56-11.74-17.34-27.5-17.34-47.29c0-24.79,7.66-45.38,22.97-61.77c15.31-16.39,34.65-24.58,58.01-24.58
		c4.17,0,8.28,0.12,12.33,0.36l2.15,0.18l4.65-6.08c29.08-36.47,55.69-62.81,79.82-79.02c24.13-16.21,48.89-24.31,74.28-24.31
		c17.88,0,31.94,4.2,42.19,12.6c10.25,8.4,15.38,19.93,15.38,34.59c0,13.35-4.89,27.53-14.66,42.55
		c-10.97,16.92-25.27,30.3-42.91,40.13c-17.64,9.83-36.17,14.75-55.6,14.75c-17.76,0-46.9-3.69-87.42-11.08
		C1907.02,304.03,1898.97,302.78,1893.37,302.18z M1909.82,282.51c9.41,1.07,22.35,3.04,38.79,5.9c34.8,6.08,59.47,9.12,74.01,9.12
		c21.93,0,41.12-6.41,57.56-19.22c16.45-12.81,24.67-27.8,24.67-44.96c0-15.25-5.16-27.41-15.46-36.47
		c-10.31-9.06-24.11-13.59-41.39-13.59c-21.45,0-44.93,9.42-70.44,28.25c-17.64,13.11-38.68,34.86-63.11,65.25L1909.82,282.51z"/>
	<path class="st0" d="M2235.72,401.75l3.22,4.65c-12.51,9.42-29.62,16.8-51.31,22.17c0.59-12.04,7.69-32.77,21.27-62.21
		c-15.37,18.12-31.2,33.13-47.46,45.05c-16.27,11.92-29.17,17.88-38.7,17.88c-8.34,0-12.51-5.3-12.51-15.91
		c0-17.99,8.04-37.45,24.13-58.37c16.09-20.92,36.29-38.11,60.6-51.58c27.41-15.37,54.7-23.06,81.88-23.06
		c3.81,0,5.72,1.43,5.72,4.29c0,2.39-1.79,6.91-5.36,13.59c-8.11-1.43-15.97-2.15-23.6-2.15c-36.35,0-67.64,14.12-93.86,42.37
		c-19.31,20.74-28.96,41.3-28.96,61.68c0,9.54,3.51,14.3,10.55,14.3c5.96,0,14.54-5.15,25.74-15.46
		c11.2-10.31,21.21-22.26,30.03-35.84c12.16-18.83,20.44-38.37,24.85-58.64c5.12,3.1,7.69,8.82,7.69,17.16
		c0,11.56-5.84,24.85-17.52,39.87c5.72-0.48,12.81-2.15,21.27-5.01l-1.43,3.04c-11.32,25.39-16.98,40.22-16.98,44.51
		c0,3.46,1.61,5.07,4.83,4.83C2222.79,408.67,2228.09,406.29,2235.72,401.75z"/>
	<path class="st0" d="M2366.04,364.75c-15.14,50.18-30.75,86.82-46.84,109.94c-10.85,15.61-24.88,28.84-42.1,39.69
		c-17.22,10.84-32.86,16.27-46.93,16.27c-6.32,0-11.5-1.52-15.55-4.56c-4.05-3.04-6.08-6.94-6.08-11.71c0-2.86,0.66-5.84,1.97-8.94
		c10.25,8.58,21.87,12.87,34.86,12.87c39.92,0,72.28-48.63,97.07-145.88c-15.73,17.52-30.84,31.55-45.32,42.1
		c-14.48,10.55-25.89,15.82-34.23,15.82c-10.01,0-15.02-6.37-15.02-19.13c0-14.78,6.37-31.46,19.13-50.06
		c12.75-18.59,29.08-34.98,48.98-49.16c29.08-20.74,60.13-31.11,93.14-31.11c7.51,0,11.26,2.21,11.26,6.61
		c0,1.91-1.01,5.3-3.04,10.19l-0.71,1.97c-6.44-1.07-13.71-1.61-21.81-1.61c-23.12,0-42.61,3.28-58.46,9.83
		c-15.85,6.56-29.92,17.16-42.19,31.82c-7.63,9.18-13.94,19.22-18.95,30.12c-5,10.9-7.51,20.17-7.51,27.8
		c0,11.56,3.69,17.34,11.08,17.34c5.96,0,13.85-4.29,23.69-12.87c9.83-8.58,19.22-19.31,28.16-32.18
		c13.94-20.26,22.53-39.57,25.74-57.92c4.88,4.53,7.33,9.89,7.33,16.09c0,10.25-5.9,23.48-17.7,39.69l2.15-0.36l7.51-1.07l7.87-1.25
		L2366.04,364.75z"/>
	<path class="st0" d="M2522.11,297.17c-6.32-0.6-11.56-0.89-15.73-0.89c-31.35,0-55.36,12.04-72.04,36.11
		c-6.56,9.54-12.1,20.47-16.63,32.8c-4.53,12.34-6.79,22.68-6.79,31.02c0,5.84,1.7,10.64,5.09,14.39s7.71,5.63,12.96,5.63
		c12.39,0,26.1-9.95,41.12-29.85c15.02-19.9,22.53-38.14,22.53-54.7c0-3.69-0.98-6.82-2.95-9.39c-1.97-2.56-4.32-3.84-7.06-3.84
		c-9.54,0-18.65,9.54-27.35,28.6c-0.6-2.38-0.89-4.47-0.89-6.26c0-7.39,4.59-15.13,13.77-23.24c9.18-8.1,17.88-12.16,26.1-12.16
		c5.48,0,10.13,2.23,13.94,6.7c3.81,4.47,5.72,9.92,5.72,16.36c0,21.57-13.77,44.46-41.3,68.65c-23.6,20.98-43.2,31.46-58.82,31.46
		c-6.79,0-12.42-2.44-16.89-7.33c-4.47-4.89-6.7-11.02-6.7-18.41c0-16.33,5.69-33.4,17.07-51.22
		c11.38-17.82,26.37-33.16,44.96-46.03c10.25-7.03,21.42-12.81,33.52-17.34c12.1-4.53,22.38-6.79,30.84-6.79
		c5.24,0,7.87,2.32,7.87,6.97C2524.44,290.2,2523.66,293.12,2522.11,297.17z"/>
	<path class="st0" d="M2643.5,297.17c-6.32-0.6-11.56-0.89-15.73-0.89c-31.35,0-55.36,12.04-72.04,36.11
		c-6.56,9.54-12.1,20.47-16.63,32.8c-4.53,12.34-6.79,22.68-6.79,31.02c0,5.84,1.7,10.64,5.09,14.39s7.71,5.63,12.96,5.63
		c12.39,0,26.1-9.95,41.12-29.85c15.02-19.9,22.53-38.14,22.53-54.7c0-3.69-0.98-6.82-2.95-9.39c-1.97-2.56-4.32-3.84-7.06-3.84
		c-9.54,0-18.65,9.54-27.35,28.6c-0.6-2.38-0.89-4.47-0.89-6.26c0-7.39,4.59-15.13,13.77-23.24c9.18-8.1,17.88-12.16,26.1-12.16
		c5.48,0,10.13,2.23,13.94,6.7c3.81,4.47,5.72,9.92,5.72,16.36c0,21.57-13.77,44.46-41.3,68.65c-23.6,20.98-43.2,31.46-58.82,31.46
		c-6.79,0-12.42-2.44-16.89-7.33c-4.47-4.89-6.7-11.02-6.7-18.41c0-16.33,5.69-33.4,17.07-51.22
		c11.38-17.82,26.37-33.16,44.96-46.03c10.25-7.03,21.42-12.81,33.52-17.34c12.1-4.53,22.38-6.79,30.84-6.79
		c5.24,0,7.87,2.32,7.87,6.97C2645.82,290.2,2645.05,293.12,2643.5,297.17z"/>
	<path class="st0" d="M2754.52,403.18l2.86,4.83c-14.3,10.25-31.23,17.4-50.77,21.45c2.5-19.67,14.06-49.52,34.68-89.56l11.62-22.17
		c3.93-7.63,5.9-12.51,5.9-14.66c0-3.22-1.31-4.83-3.93-4.83c-3.7,0-10.7,4.17-21.01,12.51c-10.31,8.34-20.35,18-30.12,28.96
		c-20.26,22.65-37.25,49.82-50.95,81.52c-5.6,1.31-13.53,4.17-23.78,8.58c10.96-22.4,22.02-47.58,33.16-75.53
		c11.14-27.95,16.71-44.48,16.71-49.61c0-4.29-1.73-6.44-5.18-6.44c-1.79,0-5.66,0.89-11.62,2.68c-0.48,0.12-1.13,0.3-1.97,0.54
		l-1.07-5.72c16.68-4.77,31.76-10.13,45.23-16.09l2.32-1.07c0.24,1.55,0.36,2.62,0.36,3.22c0,10.61-7.81,33.19-23.42,67.75
		l-2.5,5.36l3.04-3.4c19.54-22.29,37.57-39.84,54.08-52.65c16.5-12.81,29.41-19.22,38.7-19.22c5.84,0,8.76,2.98,8.76,8.94
		c0,6.2-7.81,24.49-23.42,54.88c-18.71,36.23-28.07,56.61-28.07,61.14c0,3.46,1.61,5.18,4.83,5.18c3.58,0,8.46-1.97,14.66-5.9
		L2754.52,403.18z"/>
</g>
</svg>
