<?xml version="1.0" encoding="utf-8"?>
<!-- Generator: Adobe Adobe Illustrator 24.2.0, SVG Export Plug-In . SVG Version: 6.00 Build 0)  -->
<svg version="1.1" xmlns="http://www.w3.org/2000/svg" xmlns:xlink="http://www.w3.org/1999/xlink" x="0px" y="0px"
	 viewBox="0 0 528 440" style="enable-background:new 0 0 528 440;" xml:space="preserve">
<style type="text/css">
	.st0{display:none;}
	.st1{display:inline;fill:none;}
	.st2{display:inline;}
	.st3{fill:#57A2AE;}
	.st4{font-family:'YesevaOne-Regular';}
	.st5{font-size:300px;}
	.st6{letter-spacing:-1;}
	.st7{letter-spacing:-11;}
	.st8{letter-spacing:60;}
	.st9{fill:#FFFFFF;}
</style>
<g id="Layer_1" class="st0">
	<rect x="-758.76" y="-437" class="st1" width="1650" height="1200"/>
	<text transform="matrix(1 0 0 1 -758.7563 -227.0011)" class="st2"><tspan x="0" y="0" class="st3 st4 st5 st6">KI</tspan><tspan x="319.49" y="0" class="st3 st4 st5 st7">NG BLUE</tspan><tspan x="1547.08" y="0" class="st3 st4 st5"> </tspan><tspan x="0" y="245" class="st3 st4 st5 st8">LAGOON</tspan></text>
</g>
<g id="Layer_2">
	<g>
		<path class="st3" d="M438.46-361.45l13.27,14.15c3.53,3.76,3.26,9.7-0.6,13.12L277.79-180.56c-7.35,6.51-18.4,6.53-25.77,0.04
			L76.89-334.86c-3.9-3.44-4.16-9.43-0.57-13.19l12.47-13.08c3.4-3.57,9.02-3.8,12.71-0.53l153.41,136.24
			c5.8,5.15,14.54,5.1,20.29-0.11l150.42-136.44C429.33-365.32,435.04-365.09,438.46-361.45z"/>
	</g>
	<g>
		<path class="st9" d="M438.46,128.55l13.27,14.15c3.53,3.76,3.26,9.7-0.6,13.12L277.79,309.44c-7.35,6.51-18.4,6.53-25.77,0.04
			L76.89,155.14c-3.9-3.44-4.16-9.43-0.57-13.19l12.47-13.08c3.4-3.57,9.02-3.8,12.71-0.53l153.41,136.24
			c5.8,5.15,14.54,5.1,20.29-0.11l150.42-136.44C429.33,124.68,435.04,124.91,438.46,128.55z"/>
	</g>
	<g>
		<path class="st3" d="M660.55-444.46l14.15-13.27c3.76-3.53,9.7-3.26,13.12,0.6l153.62,173.33c6.51,7.35,6.53,18.4,0.04,25.77
			L687.14-82.89c-3.44,3.9-9.43,4.16-13.19,0.57L660.87-94.8c-3.57-3.4-3.8-9.02-0.53-12.71l136.24-153.41
			c5.15-5.8,5.1-14.54-0.11-20.29L660.04-431.63C656.68-435.33,656.91-441.04,660.55-444.46z"/>
	</g>
	<g>
		<path class="st9" d="M660.55,45.54l14.15-13.27c3.76-3.53,9.7-3.26,13.12,0.6l153.62,173.33c6.51,7.35,6.53,18.4,0.04,25.77
			L687.14,407.11c-3.44,3.9-9.43,4.16-13.19,0.57l-13.08-12.47c-3.57-3.4-3.8-9.02-0.53-12.71l136.24-153.41
			c5.15-5.8,5.1-14.54-0.11-20.29L660.04,58.37C656.68,54.67,656.91,48.96,660.55,45.54z"/>
	</g>
	<g>
		<path class="st3" d="M1303.45-95.54l-14.15,13.27c-3.76,3.53-9.7,3.26-13.12-0.6l-153.62-173.33c-6.51-7.35-6.53-18.4-0.04-25.77
			l154.34-175.13c3.44-3.9,9.43-4.16,13.19-0.57l13.08,12.47c3.57,3.4,3.8,9.02,0.53,12.71l-136.24,153.41
			c-5.15,5.8-5.1,14.54,0.11,20.29l136.44,150.42C1307.32-104.67,1307.09-98.96,1303.45-95.54z"/>
	</g>
	<g>
		<path class="st9" d="M1303.45,394.46l-14.15,13.27c-3.76,3.53-9.7,3.26-13.12-0.6l-153.62-173.33c-6.51-7.35-6.53-18.4-0.04-25.77
			l154.34-175.13c3.44-3.9,9.43-4.16,13.19-0.57l13.08,12.47c3.57,3.4,3.8,9.02,0.53,12.71l-136.24,153.41
			c-5.15,5.8-5.1,14.54,0.11,20.29l136.44,150.42C1307.32,385.33,1307.09,391.04,1303.45,394.46z"/>
	</g>
</g>
</svg>
